# Blender v2.71 (sub 0) OBJ File: ''
# www.blender.org
o Icosphere
v 0.000000 -1.000000 0.000000
v 0.723607 -0.447220 0.525725
v -0.276388 -0.447220 0.850649
v -0.894426 -0.447216 0.000000
v -0.276388 -0.447220 -0.850649
v 0.723607 -0.447220 -0.525725
v 0.276388 0.447220 0.850649
v -0.723607 0.447220 0.525725
v -0.723607 0.447220 -0.525725
v 0.276388 0.447220 -0.850649
v 0.894426 0.447216 0.000000
v 0.000000 1.000000 0.000000
v -0.162456 -0.850654 0.499995
v 0.425323 -0.850654 0.309011
v 0.262869 -0.525738 0.809012
v 0.850648 -0.525736 0.000000
v 0.425323 -0.850654 -0.309011
v -0.525730 -0.850652 0.000000
v -0.688189 -0.525736 0.499997
v -0.162456 -0.850654 -0.499995
v -0.688189 -0.525736 -0.499997
v 0.262869 -0.525738 -0.809012
v 0.951058 0.000000 0.309013
v 0.951058 0.000000 -0.309013
v 0.000000 0.000000 1.000000
v 0.587786 0.000000 0.809017
v -0.951058 0.000000 0.309013
v -0.587786 0.000000 0.809017
v -0.587786 0.000000 -0.809017
v -0.951058 0.000000 -0.309013
v 0.587786 0.000000 -0.809017
v 0.000000 0.000000 -1.000000
v 0.688189 0.525736 0.499997
v -0.262869 0.525738 0.809012
v -0.850648 0.525736 0.000000
v -0.262869 0.525738 -0.809012
v 0.688189 0.525736 -0.499997
v 0.162456 0.850654 0.499995
v 0.525730 0.850652 0.000000
v -0.425323 0.850654 0.309011
v -0.425323 0.850654 -0.309011
v 0.162456 0.850654 -0.499995
v -0.084770 -0.965680 0.260900
v 0.599517 -0.677237 0.435570
v -0.007054 -0.507694 0.866019
v 0.821454 -0.507692 0.274326
v 0.599517 -0.677237 -0.435570
v -0.274328 -0.965679 0.000000
v -0.825817 -0.507691 0.260901
v -0.084770 -0.965680 -0.260900
v -0.503322 -0.507693 -0.704774
v 0.514748 -0.507694 -0.696472
v 0.873849 -0.233361 0.435571
v 0.962983 0.233359 -0.161244
v -0.144221 -0.233362 0.965678
v 0.450931 0.233362 0.866023
v -0.962983 -0.233359 0.161244
v -0.684292 0.233361 0.696476
v -0.450931 -0.233362 -0.866023
v -0.873849 0.233361 -0.435571
v 0.684292 -0.233361 -0.696476
v 0.144221 0.233362 -0.965678
v 0.503322 0.507693 0.704774
v -0.514748 0.507694 0.696472
v -0.821454 0.507692 -0.274326
v 0.007054 0.507694 -0.866019
v 0.825817 0.507691 -0.260901
v 0.228991 0.677237 0.704773
v 0.274328 0.965679 -0.000000
v -0.599517 0.677237 0.435570
v -0.599517 0.677237 -0.435570
v 0.228991 0.677237 -0.704773
v -0.228991 -0.677237 0.704773
v 0.221935 -0.965680 0.161244
v 0.514748 -0.507694 0.696472
v 0.821454 -0.507692 -0.274326
v 0.221935 -0.965680 -0.161244
v -0.741044 -0.677234 0.000000
v -0.503322 -0.507693 0.704774
v -0.228991 -0.677237 -0.704773
v -0.825817 -0.507691 -0.260901
v -0.007054 -0.507694 -0.866019
v 0.962983 0.233359 0.161244
v 0.873849 -0.233361 -0.435571
v 0.144221 0.233362 0.965678
v 0.684292 -0.233361 0.696476
v -0.873849 0.233361 0.435571
v -0.450931 -0.233362 0.866023
v -0.684292 0.233361 -0.696476
v -0.962983 -0.233359 -0.161244
v 0.450931 0.233362 -0.866023
v -0.144221 -0.233362 -0.965678
v 0.825817 0.507691 0.260901
v 0.007054 0.507694 0.866019
v -0.821454 0.507692 0.274326
v -0.514748 0.507694 -0.696472
v 0.503322 0.507693 -0.704774
v 0.084770 0.965680 0.260900
v 0.741044 0.677234 -0.000000
v -0.221935 0.965680 0.161244
v -0.221935 0.965680 -0.161244
v 0.084770 0.965680 -0.260900
v 0.053006 -0.726574 0.691003
v 0.138763 -0.898092 0.427061
v 0.363285 -0.726574 0.590186
v 0.673564 -0.726573 -0.163122
v 0.673564 -0.726573 0.163122
v 0.449041 -0.898091 0.000000
v -0.640808 -0.726572 0.263940
v -0.363282 -0.898091 0.263939
v -0.449042 -0.726574 0.527880
v -0.449042 -0.726574 -0.527880
v -0.363282 -0.898091 -0.263939
v -0.640808 -0.726572 -0.263940
v 0.363285 -0.726574 -0.590186
v 0.138763 -0.898092 -0.427061
v 0.053006 -0.726574 -0.691003
v 1.004094 -0.000000 0.000000
v 0.951091 -0.277527 0.163123
v 0.951091 -0.277527 -0.163123
v 0.310282 0.000000 0.954950
v 0.138764 -0.277528 0.954949
v 0.449047 -0.277528 0.854131
v -0.812330 0.000000 0.590190
v -0.865332 -0.277528 0.427063
v -0.673567 -0.277528 0.691007
v -0.812330 -0.000000 -0.590190
v -0.673567 -0.277528 -0.691007
v -0.865332 -0.277528 -0.427063
v 0.310282 0.000000 -0.954950
v 0.449047 -0.277528 -0.854131
v 0.138764 -0.277528 -0.954949
v 0.673567 0.277528 0.691007
v 0.812330 -0.000000 0.590190
v 0.865332 0.277528 0.427063
v -0.449047 0.277528 0.854131
v -0.310282 -0.000000 0.954950
v -0.138764 0.277528 0.954949
v -0.951091 0.277527 -0.163123
v -1.004094 0.000000 0.000000
v -0.951091 0.277527 0.163123
v -0.138764 0.277528 -0.954949
v -0.310282 -0.000000 -0.954950
v -0.449047 0.277528 -0.854131
v 0.865332 0.277528 -0.427063
v 0.812330 -0.000000 -0.590190
v 0.673567 0.277528 -0.691007
v 0.363282 0.898091 0.263939
v 0.449042 0.726574 0.527880
v 0.640808 0.726572 0.263940
v -0.138763 0.898092 0.427061
v -0.363285 0.726574 0.590186
v -0.053006 0.726574 0.691003
v -0.449041 0.898091 0.000000
v -0.673564 0.726573 -0.163122
v -0.673564 0.726573 0.163122
v -0.138763 0.898092 -0.427061
v -0.053007 0.726574 -0.691003
v -0.363285 0.726574 -0.590186
v 0.363282 0.898091 -0.263939
v 0.640808 0.726572 -0.263940
v 0.449042 0.726574 -0.527880
vn 0.047200 -0.988300 0.145300
vn 0.723200 -0.552600 0.414400
vn -0.123600 -0.988300 0.089800
vn -0.123600 -0.988300 -0.089800
vn 0.047200 -0.988300 -0.145300
vn 0.817600 -0.399700 0.414400
vn -0.141400 -0.399700 0.905700
vn -0.905000 -0.399700 0.145300
vn -0.417900 -0.399700 -0.815800
vn 0.646800 -0.399700 -0.649600
vn 0.770400 -0.305300 0.559700
vn -0.294300 -0.305300 0.905700
vn -0.952300 -0.305300 0.000000
vn -0.294300 -0.305300 -0.905700
vn 0.770400 -0.305300 -0.559700
vn 0.341500 0.552600 0.760300
vn -0.617600 0.552600 0.559700
vn -0.723200 0.552600 -0.414400
vn 0.170600 0.552600 -0.815800
vn 0.828600 0.552500 -0.089800
vn -0.105300 -0.775500 0.622500
vn -0.000100 -0.838500 0.544900
vn 0.451100 -0.775500 0.441700
vn 0.792000 -0.597900 -0.123600
vn 0.750100 -0.661400 0.000000
vn 0.389400 -0.905500 0.168900
vn -0.624600 -0.775500 0.092200
vn -0.518200 -0.838500 0.168200
vn -0.280700 -0.775500 0.565500
vn -0.280700 -0.775500 -0.565500
vn -0.320200 -0.838500 -0.440900
vn -0.624600 -0.775500 -0.092200
vn 0.451100 -0.775500 -0.441700
vn 0.320400 -0.838500 -0.440700
vn -0.105300 -0.775500 -0.622500
vn 0.984000 0.056700 0.168900
vn 0.981700 -0.088500 0.168500
vn 0.889000 -0.441000 -0.123600
vn 0.143500 0.056700 0.988000
vn 0.143100 -0.088500 0.985700
vn 0.392300 -0.441000 0.807300
vn -0.895300 0.056700 0.441700
vn -0.893300 -0.088500 0.440700
vn -0.646500 -0.441000 0.622500
vn -0.696800 0.056700 -0.715000
vn -0.695200 -0.088500 -0.713400
vn -0.791800 -0.441000 -0.422500
vn 0.464700 0.056700 -0.883700
vn 0.463600 -0.088500 -0.881600
vn 0.157100 -0.441000 -0.883700
vn 0.591700 0.153600 0.791400
vn 0.695200 0.088500 0.713400
vn 0.935500 0.153600 0.318100
vn -0.569800 0.153600 0.807300
vn -0.463600 0.088500 0.881600
vn -0.013500 0.153600 0.988000
vn -0.943800 0.153600 -0.292500
vn -0.981700 0.088500 -0.168500
vn -0.943800 0.153600 0.292500
vn -0.013500 0.153600 -0.988000
vn -0.143100 0.088500 -0.985700
vn -0.569800 0.153600 -0.807300
vn 0.935500 0.153600 -0.318100
vn 0.893300 0.088500 -0.440700
vn 0.591700 0.153600 -0.791400
vn 0.215700 0.905500 0.365500
vn 0.320200 0.838500 0.440900
vn 0.713400 0.597900 0.365500
vn -0.280900 0.905500 0.318100
vn -0.320400 0.838500 0.440700
vn -0.127200 0.597900 0.791400
vn -0.389400 0.905500 -0.168900
vn -0.518200 0.838500 -0.168500
vn -0.792000 0.597900 0.123600
vn 0.040300 0.905500 -0.422500
vn 0.000100 0.838500 -0.544900
vn -0.362300 0.597900 -0.715000
vn 0.414300 0.905500 -0.092200
vn 0.518200 0.838500 -0.168200
vn 0.568100 0.597900 -0.565500
vn -0.040300 -0.905500 0.422500
vn 0.088100 -0.958500 0.271300
vn 0.280900 -0.905500 0.318100
vn 0.792000 -0.597900 0.123600
vn 0.708600 -0.635000 0.307600
vn 0.559500 -0.775500 0.292500
vn -0.414300 -0.905500 0.092200
vn -0.230800 -0.958500 0.167700
vn -0.215700 -0.905500 0.365500
vn -0.215700 -0.905500 -0.365500
vn -0.230800 -0.958500 -0.167700
vn -0.414300 -0.905500 -0.092200
vn 0.280900 -0.905500 -0.318100
vn 0.088100 -0.958500 -0.271300
vn -0.040300 -0.905500 -0.422500
vn 0.943800 -0.153600 0.292500
vn 0.884900 -0.349800 0.307600
vn 0.889000 -0.441000 0.123600
vn 0.013500 -0.153600 0.988000
vn -0.019100 -0.349800 0.936600
vn 0.157100 -0.441000 0.883700
vn -0.935500 -0.153600 0.318100
vn -0.896700 -0.349800 0.271300
vn -0.791800 -0.441000 0.422500
vn -0.591700 -0.153600 -0.791400
vn -0.535100 -0.349800 -0.769000
vn -0.646500 -0.441000 -0.622500
vn 0.569800 -0.153600 -0.807300
vn 0.566000 -0.349800 -0.746500
vn 0.392300 -0.441000 -0.807300
vn 0.696800 -0.056700 0.715000
vn 0.796700 -0.173500 0.578900
vn 0.895300 -0.056700 0.441700
vn -0.464700 -0.056700 0.883700
vn -0.304300 -0.173500 0.936600
vn -0.143500 -0.056700 0.988000
vn -0.984000 -0.056700 -0.168900
vn -0.984800 -0.173500 0.000000
vn -0.984000 -0.056700 0.168900
vn -0.143500 -0.056700 -0.988000
vn -0.304300 -0.173500 -0.936600
vn -0.464700 -0.056700 -0.883700
vn 0.895300 -0.056700 -0.441700
vn 0.796700 -0.173500 -0.578900
vn 0.696800 -0.056700 -0.715000
vn 0.280700 0.775500 0.565500
vn 0.392500 0.635000 0.665300
vn 0.568100 0.597900 0.565500
vn -0.451100 0.775500 0.441700
vn -0.511500 0.635000 0.578900
vn -0.362300 0.597900 0.715000
vn -0.559500 0.775500 -0.292500
vn -0.708600 0.635000 -0.307600
vn -0.792000 0.597900 -0.123600
vn 0.105300 0.775500 -0.622500
vn 0.073600 0.635000 -0.769000
vn -0.127200 0.597900 -0.791400
vn 0.624600 0.775500 -0.092200
vn 0.754100 0.635000 -0.167700
vn 0.713400 0.597900 -0.365500
vn -0.170600 -0.552600 0.815800
vn -0.073600 -0.635000 0.769000
vn 0.127200 -0.597900 0.791400
vn 0.231800 -0.661400 0.713400
vn 0.187600 -0.794700 0.577300
vn 0.320400 -0.838500 0.440700
vn 0.362300 -0.597900 0.715000
vn 0.511500 -0.635000 0.578900
vn 0.617600 -0.552600 0.559700
vn 0.723200 -0.552600 -0.414400
vn 0.708600 -0.635000 -0.307600
vn 0.559500 -0.775500 -0.292500
vn 0.518200 -0.838500 -0.168500
vn 0.607100 -0.794700 0.000000
vn 0.518200 -0.838500 0.168500
vn 0.389400 -0.905500 -0.168900
vn 0.285200 -0.958500 0.000000
vn 0.152800 -0.988300 0.000000
vn -0.828600 -0.552500 0.089800
vn -0.754100 -0.635000 0.167700
vn -0.713400 -0.597900 0.365500
vn -0.606800 -0.661400 0.440900
vn -0.491100 -0.794700 0.356800
vn -0.320200 -0.838500 0.440900
vn -0.568100 -0.597900 0.565500
vn -0.392500 -0.635000 0.665300
vn -0.341500 -0.552600 0.760300
vn -0.341500 -0.552600 -0.760300
vn -0.392500 -0.635000 -0.665300
vn -0.568100 -0.597900 -0.565500
vn -0.606800 -0.661400 -0.440900
vn -0.491100 -0.794700 -0.356800
vn -0.518200 -0.838500 -0.168200
vn -0.713400 -0.597900 -0.365500
vn -0.754100 -0.635000 -0.167700
vn -0.828600 -0.552500 -0.089800
vn 0.617600 -0.552600 -0.559700
vn 0.511500 -0.635000 -0.578900
vn 0.362300 -0.597900 -0.715000
vn 0.231800 -0.661400 -0.713400
vn 0.187600 -0.794700 -0.577300
vn -0.000100 -0.838500 -0.544900
vn 0.127200 -0.597900 -0.791400
vn -0.073600 -0.635000 -0.769000
vn -0.170600 -0.552600 -0.815800
vn 0.952300 0.305300 0.000000
vn 0.984800 0.173500 0.000000
vn 0.984000 0.056700 -0.168900
vn 0.981700 -0.088500 -0.168500
vn 0.982200 -0.187600 0.000000
vn 0.927000 -0.375100 0.000000
vn 0.943800 -0.153600 -0.292500
vn 0.884900 -0.349800 -0.307600
vn 0.817600 -0.399700 -0.414400
vn 0.294300 0.305300 0.905700
vn 0.304300 0.173500 0.936600
vn 0.464700 0.056700 0.883700
vn 0.463600 -0.088500 0.881600
vn 0.303500 -0.187600 0.934200
vn 0.286500 -0.375100 0.881600
vn 0.569800 -0.153600 0.807300
vn 0.566000 -0.349800 0.746500
vn 0.646800 -0.399700 0.649600
vn -0.770400 0.305300 0.559700
vn -0.796700 0.173500 0.578900
vn -0.696800 0.056700 0.715000
vn -0.695200 -0.088500 0.713400
vn -0.794700 -0.187600 0.577300
vn -0.749900 -0.375100 0.544900
vn -0.591700 -0.153600 0.791400
vn -0.535100 -0.349800 0.769000
vn -0.417900 -0.399700 0.815800
vn -0.770400 0.305300 -0.559700
vn -0.796700 0.173500 -0.578900
vn -0.895300 0.056700 -0.441700
vn -0.893300 -0.088500 -0.440700
vn -0.794700 -0.187600 -0.577300
vn -0.749900 -0.375100 -0.544900
vn -0.935500 -0.153600 -0.318100
vn -0.896700 -0.349800 -0.271300
vn -0.905000 -0.399700 -0.145300
vn 0.294300 0.305300 -0.905700
vn 0.304300 0.173500 -0.936600
vn 0.143500 0.056700 -0.988000
vn 0.143100 -0.088500 -0.985700
vn 0.303500 -0.187600 -0.934200
vn 0.286500 -0.375100 -0.881600
vn 0.013500 -0.153600 -0.988000
vn -0.019100 -0.349800 -0.936600
vn -0.141400 -0.399700 -0.905700
vn 0.417900 0.399700 0.815800
vn 0.535100 0.349800 0.769000
vn 0.646500 0.441000 0.622500
vn 0.749900 0.375100 0.544900
vn 0.794700 0.187600 0.577300
vn 0.893300 0.088500 0.440700
vn 0.791800 0.441000 0.422500
vn 0.896700 0.349800 0.271300
vn 0.905000 0.399700 0.145300
vn -0.646800 0.399700 0.649600
vn -0.566000 0.349800 0.746500
vn -0.392300 0.441000 0.807300
vn -0.286500 0.375100 0.881600
vn -0.303500 0.187600 0.934200
vn -0.143100 0.088500 0.985700
vn -0.157100 0.441000 0.883700
vn 0.019100 0.349800 0.936600
vn 0.141400 0.399700 0.905700
vn -0.817600 0.399700 -0.414400
vn -0.884900 0.349800 -0.307600
vn -0.889000 0.441000 -0.123600
vn -0.927000 0.375100 0.000000
vn -0.982200 0.187600 0.000000
vn -0.981700 0.088500 0.168500
vn -0.889000 0.441000 0.123600
vn -0.884900 0.349800 0.307600
vn -0.817600 0.399700 0.414400
vn 0.141400 0.399700 -0.905700
vn 0.019100 0.349800 -0.936600
vn -0.157100 0.441000 -0.883700
vn -0.286500 0.375100 -0.881600
vn -0.303500 0.187600 -0.934200
vn -0.463600 0.088500 -0.881600
vn -0.392300 0.441000 -0.807300
vn -0.566000 0.349800 -0.746500
vn -0.646800 0.399700 -0.649600
vn 0.905000 0.399700 -0.145300
vn 0.896700 0.349800 -0.271300
vn 0.791800 0.441000 -0.422500
vn 0.749900 0.375100 -0.544900
vn 0.794700 0.187600 -0.577300
vn 0.695200 0.088500 -0.713400
vn 0.646500 0.441000 -0.622500
vn 0.535100 0.349800 -0.769000
vn 0.417900 0.399700 -0.815800
vn 0.123600 0.988300 0.089800
vn 0.230800 0.958500 0.167700
vn 0.414300 0.905500 0.092200
vn 0.518200 0.838500 0.168200
vn 0.491100 0.794700 0.356800
vn 0.606800 0.661400 0.440900
vn 0.624600 0.775500 0.092200
vn 0.754100 0.635000 0.167700
vn 0.828600 0.552500 0.089800
vn -0.047200 0.988300 0.145300
vn -0.088100 0.958500 0.271300
vn 0.040300 0.905500 0.422500
vn 0.000100 0.838500 0.544900
vn -0.187600 0.794700 0.577300
vn -0.231800 0.661400 0.713400
vn 0.105300 0.775500 0.622500
vn 0.073600 0.635000 0.769000
vn 0.170600 0.552600 0.815800
vn -0.152800 0.988300 0.000000
vn -0.285200 0.958500 0.000000
vn -0.389400 0.905500 0.168900
vn -0.518200 0.838500 0.168500
vn -0.607100 0.794700 0.000000
vn -0.750100 0.661400 0.000000
vn -0.559500 0.775500 0.292500
vn -0.708600 0.635000 0.307600
vn -0.723200 0.552600 0.414400
vn -0.047200 0.988300 -0.145300
vn -0.088100 0.958500 -0.271300
vn -0.280900 0.905500 -0.318100
vn -0.320400 0.838500 -0.440700
vn -0.187600 0.794700 -0.577300
vn -0.231800 0.661400 -0.713400
vn -0.451100 0.775500 -0.441700
vn -0.511500 0.635000 -0.578900
vn -0.617600 0.552600 -0.559700
vn 0.123600 0.988300 -0.089800
vn 0.230800 0.958500 -0.167700
vn 0.215700 0.905500 -0.365500
vn 0.320200 0.838500 -0.440900
vn 0.491100 0.794700 -0.356800
vn 0.606800 0.661400 -0.440900
vn 0.280700 0.775500 -0.565500
vn 0.392500 0.635000 -0.665300
vn 0.341500 0.552600 -0.760300
s off
f 1//1 74//1 43//1
f 2//2 44//2 46//2
f 1//3 43//3 48//3
f 1//4 48//4 50//4
f 1//5 50//5 77//5
f 2//6 46//6 53//6
f 3//7 45//7 55//7
f 4//8 49//8 57//8
f 5//9 51//9 59//9
f 6//10 52//10 61//10
f 2//11 53//11 86//11
f 3//12 55//12 88//12
f 4//13 57//13 90//13
f 5//14 59//14 92//14
f 6//15 61//15 84//15
f 7//16 63//16 68//16
f 8//17 64//17 70//17
f 9//18 65//18 71//18
f 10//19 66//19 72//19
f 11//20 67//20 99//20
f 13//21 103//21 73//21
f 13//22 104//22 103//22
f 14//23 44//23 105//23
f 16//24 106//24 76//24
f 16//25 107//25 106//25
f 14//26 74//26 108//26
f 18//27 109//27 78//27
f 18//28 110//28 109//28
f 13//29 73//29 111//29
f 20//30 112//30 80//30
f 20//31 113//31 112//31
f 18//32 78//32 114//32
f 17//33 115//33 47//33
f 17//34 116//34 115//34
f 20//35 80//35 117//35
f 23//36 118//36 83//36
f 23//37 119//37 118//37
f 16//38 76//38 120//38
f 25//39 121//39 85//39
f 25//40 122//40 121//40
f 15//41 75//41 123//41
f 27//42 124//42 87//42
f 27//43 125//43 124//43
f 19//44 79//44 126//44
f 29//45 127//45 89//45
f 29//46 128//46 127//46
f 21//47 81//47 129//47
f 31//48 130//48 91//48
f 31//49 131//49 130//49
f 22//50 82//50 132//50
f 26//51 133//51 56//51
f 26//52 134//52 133//52
f 23//53 83//53 135//53
f 28//54 136//54 58//54
f 28//55 137//55 136//55
f 25//56 85//56 138//56
f 30//57 139//57 60//57
f 30//58 140//58 139//58
f 27//59 87//59 141//59
f 32//60 142//60 62//60
f 32//61 143//61 142//61
f 29//62 89//62 144//62
f 24//63 145//63 54//63
f 24//64 146//64 145//64
f 31//65 91//65 147//65
f 38//66 148//66 98//66
f 38//67 149//67 148//67
f 33//68 93//68 150//68
f 40//69 151//69 100//69
f 40//70 152//70 151//70
f 34//71 94//71 153//71
f 41//72 154//72 101//72
f 41//73 155//73 154//73
f 35//74 95//74 156//74
f 42//75 157//75 102//75
f 42//76 158//76 157//76
f 36//77 96//77 159//77
f 39//78 160//78 69//78
f 39//79 161//79 160//79
f 37//80 97//80 162//80
f 43//81 104//81 13//81
f 43//82 74//82 104//82
f 74//83 14//83 104//83
f 46//84 107//84 16//84
f 46//85 44//85 107//85
f 44//86 14//86 107//86
f 48//87 110//87 18//87
f 48//88 43//88 110//88
f 43//89 13//89 110//89
f 50//90 113//90 20//90
f 50//91 48//91 113//91
f 48//92 18//92 113//92
f 77//93 116//93 17//93
f 77//94 50//94 116//94
f 50//95 20//95 116//95
f 53//96 119//96 23//96
f 53//97 46//97 119//97
f 46//98 16//98 119//98
f 55//99 122//99 25//99
f 55//100 45//100 122//100
f 45//101 15//101 122//101
f 57//102 125//102 27//102
f 57//103 49//103 125//103
f 49//104 19//104 125//104
f 59//105 128//105 29//105
f 59//106 51//106 128//106
f 51//107 21//107 128//107
f 61//108 131//108 31//108
f 61//109 52//109 131//109
f 52//110 22//110 131//110
f 86//111 134//111 26//111
f 86//112 53//112 134//112
f 53//113 23//113 134//113
f 88//114 137//114 28//114
f 88//115 55//115 137//115
f 55//116 25//116 137//116
f 90//117 140//117 30//117
f 90//118 57//118 140//118
f 57//119 27//119 140//119
f 92//120 143//120 32//120
f 92//121 59//121 143//121
f 59//122 29//122 143//122
f 84//123 146//123 24//123
f 84//124 61//124 146//124
f 61//125 31//125 146//125
f 68//126 149//126 38//126
f 68//127 63//127 149//127
f 63//128 33//128 149//128
f 70//129 152//129 40//129
f 70//130 64//130 152//130
f 64//131 34//131 152//131
f 71//132 155//132 41//132
f 71//133 65//133 155//133
f 65//134 35//134 155//134
f 72//135 158//135 42//135
f 72//136 66//136 158//136
f 66//137 36//137 158//137
f 99//138 161//138 39//138
f 99//139 67//139 161//139
f 67//140 37//140 161//140
f 73//141 45//141 3//141
f 73//142 103//142 45//142
f 103//143 15//143 45//143
f 103//144 105//144 15//144
f 103//145 104//145 105//145
f 104//146 14//146 105//146
f 105//147 75//147 15//147
f 105//148 44//148 75//148
f 44//149 2//149 75//149
f 76//150 47//150 6//150
f 76//151 106//151 47//151
f 106//152 17//152 47//152
f 106//153 108//153 17//153
f 106//154 107//154 108//154
f 107//155 14//155 108//155
f 108//156 77//156 17//156
f 108//157 74//157 77//157
f 74//158 1//158 77//158
f 78//159 49//159 4//159
f 78//160 109//160 49//160
f 109//161 19//161 49//161
f 109//162 111//162 19//162
f 109//163 110//163 111//163
f 110//164 13//164 111//164
f 111//165 79//165 19//165
f 111//166 73//166 79//166
f 73//167 3//167 79//167
f 80//168 51//168 5//168
f 80//169 112//169 51//169
f 112//170 21//170 51//170
f 112//171 114//171 21//171
f 112//172 113//172 114//172
f 113//173 18//173 114//173
f 114//174 81//174 21//174
f 114//175 78//175 81//175
f 78//176 4//176 81//176
f 47//177 52//177 6//177
f 47//178 115//178 52//178
f 115//179 22//179 52//179
f 115//180 117//180 22//180
f 115//181 116//181 117//181
f 116//182 20//182 117//182
f 117//183 82//183 22//183
f 117//184 80//184 82//184
f 80//185 5//185 82//185
f 83//186 54//186 11//186
f 83//187 118//187 54//187
f 118//188 24//188 54//188
f 118//189 120//189 24//189
f 118//190 119//190 120//190
f 119//191 16//191 120//191
f 120//192 84//192 24//192
f 120//193 76//193 84//193
f 76//194 6//194 84//194
f 85//195 56//195 7//195
f 85//196 121//196 56//196
f 121//197 26//197 56//197
f 121//198 123//198 26//198
f 121//199 122//199 123//199
f 122//200 15//200 123//200
f 123//201 86//201 26//201
f 123//202 75//202 86//202
f 75//203 2//203 86//203
f 87//204 58//204 8//204
f 87//205 124//205 58//205
f 124//206 28//206 58//206
f 124//207 126//207 28//207
f 124//208 125//208 126//208
f 125//209 19//209 126//209
f 126//210 88//210 28//210
f 126//211 79//211 88//211
f 79//212 3//212 88//212
f 89//213 60//213 9//213
f 89//214 127//214 60//214
f 127//215 30//215 60//215
f 127//216 129//216 30//216
f 127//217 128//217 129//217
f 128//218 21//218 129//218
f 129//219 90//219 30//219
f 129//220 81//220 90//220
f 81//221 4//221 90//221
f 91//222 62//222 10//222
f 91//223 130//223 62//223
f 130//224 32//224 62//224
f 130//225 132//225 32//225
f 130//226 131//226 132//226
f 131//227 22//227 132//227
f 132//228 92//228 32//228
f 132//229 82//229 92//229
f 82//230 5//230 92//230
f 56//231 63//231 7//231
f 56//232 133//232 63//232
f 133//233 33//233 63//233
f 133//234 135//234 33//234
f 133//235 134//235 135//235
f 134//236 23//236 135//236
f 135//237 93//237 33//237
f 135//238 83//238 93//238
f 83//239 11//239 93//239
f 58//240 64//240 8//240
f 58//241 136//241 64//241
f 136//242 34//242 64//242
f 136//243 138//243 34//243
f 136//244 137//244 138//244
f 137//245 25//245 138//245
f 138//246 94//246 34//246
f 138//247 85//247 94//247
f 85//248 7//248 94//248
f 60//249 65//249 9//249
f 60//250 139//250 65//250
f 139//251 35//251 65//251
f 139//252 141//252 35//252
f 139//253 140//253 141//253
f 140//254 27//254 141//254
f 141//255 95//255 35//255
f 141//256 87//256 95//256
f 87//257 8//257 95//257
f 62//258 66//258 10//258
f 62//259 142//259 66//259
f 142//260 36//260 66//260
f 142//261 144//261 36//261
f 142//262 143//262 144//262
f 143//263 29//263 144//263
f 144//264 96//264 36//264
f 144//265 89//265 96//265
f 89//266 9//266 96//266
f 54//267 67//267 11//267
f 54//268 145//268 67//268
f 145//269 37//269 67//269
f 145//270 147//270 37//270
f 145//271 146//271 147//271
f 146//272 31//272 147//272
f 147//273 97//273 37//273
f 147//274 91//274 97//274
f 91//275 10//275 97//275
f 98//276 69//276 12//276
f 98//277 148//277 69//277
f 148//278 39//278 69//278
f 148//279 150//279 39//279
f 148//280 149//280 150//280
f 149//281 33//281 150//281
f 150//282 99//282 39//282
f 150//283 93//283 99//283
f 93//284 11//284 99//284
f 100//285 98//285 12//285
f 100//286 151//286 98//286
f 151//287 38//287 98//287
f 151//288 153//288 38//288
f 151//289 152//289 153//289
f 152//290 34//290 153//290
f 153//291 68//291 38//291
f 153//292 94//292 68//292
f 94//293 7//293 68//293
f 101//294 100//294 12//294
f 101//295 154//295 100//295
f 154//296 40//296 100//296
f 154//297 156//297 40//297
f 154//298 155//298 156//298
f 155//299 35//299 156//299
f 156//300 70//300 40//300
f 156//301 95//301 70//301
f 95//302 8//302 70//302
f 102//303 101//303 12//303
f 102//304 157//304 101//304
f 157//305 41//305 101//305
f 157//306 159//306 41//306
f 157//307 158//307 159//307
f 158//308 36//308 159//308
f 159//309 71//309 41//309
f 159//310 96//310 71//310
f 96//311 9//311 71//311
f 69//312 102//312 12//312
f 69//313 160//313 102//313
f 160//314 42//314 102//314
f 160//315 162//315 42//315
f 160//316 161//316 162//316
f 161//317 37//317 162//317
f 162//318 72//318 42//318
f 162//319 97//319 72//319
f 97//320 10//320 72//320
