# Blender v2.71 (sub 0) OBJ File: 'test_scene.blend'
# www.blender.org
v 16.000479 -3.735526 -17.406342
v 11.789400 -3.735552 14.613267
v 16.000479 8.979858 -17.406330
v 11.789400 8.979833 14.613278
v 17.446541 -3.735526 -17.216160
v 13.235463 -3.735552 14.803447
v 17.446543 8.979858 -17.216150
v 13.235463 8.979833 14.803458
vn -0.991500 0.000000 -0.130400
vn 0.991500 -0.000000 0.130400
vn -0.000000 1.000000 0.000000
vn -0.130400 -0.000000 0.991500
vn 0.000000 -1.000000 -0.000000
vn 0.130400 0.000000 -0.991500
s off
f 2//1 4//1 3//1
f 1//1 2//1 3//1
f 6//2 7//2 8//2
f 5//2 7//2 6//2
f 4//3 8//3 7//3
f 6//4 8//4 4//4
f 5//5 6//5 2//5
f 7//6 5//6 1//6
f 3//3 4//3 7//3
f 2//4 6//4 4//4
f 1//5 5//5 2//5
f 3//6 7//6 1//6
v -0.959820 -1.590435 0.807761
v 0.142541 -1.590435 -0.861011
v 1.811313 -1.590435 0.241349
v 0.708952 -1.590435 1.910122
v -0.959820 0.409565 0.807761
v 0.142541 0.409565 -0.861011
v 1.811313 0.409565 0.241350
v 0.708952 0.409565 1.910122
vn -0.834400 0.000000 -0.551200
vn 0.551200 0.000000 -0.834400
vn 0.834400 0.000000 0.551200
vn -0.551200 -0.000000 0.834400
vn -0.000000 -1.000000 -0.000000
vn 0.000000 1.000000 0.000000
s off
f 14//7 10//7 9//7
f 15//8 11//8 10//8
f 16//9 12//9 11//9
f 13//10 9//10 12//10
f 10//11 11//11 12//11
f 15//12 14//12 13//12
f 13//7 14//7 9//7
f 14//8 15//8 10//8
f 15//9 16//9 11//9
f 16//10 13//10 12//10
f 9//11 10//11 12//11
f 16//12 15//12 13//12
v -16.177395 -2.883902 -11.727147
v 16.117935 -2.883902 -11.727147
v -16.177395 9.831483 -11.727134
v 16.117935 9.831483 -11.727134
v -16.177395 -2.883900 -13.091428
v 16.117935 -2.883900 -13.091428
v -16.177395 9.831484 -13.091414
v 16.117935 9.831484 -13.091414
vn 0.000000 -0.000000 1.000000
vn 0.000000 0.000000 -1.000000
vn 0.000000 1.000000 0.000000
vn 1.000000 0.000000 0.000000
vn 0.000000 -1.000000 -0.000000
vn -1.000000 0.000000 0.000000
s off
f 18//13 20//13 19//13
f 17//13 18//13 19//13
f 22//14 23//14 24//14
f 21//14 23//14 22//14
f 24//15 23//15 19//15
f 22//16 24//16 20//16
f 21//17 22//17 18//17
f 23//18 21//18 17//18
f 20//15 24//15 19//15
f 18//16 22//16 20//16
f 17//17 21//17 18//17
f 19//18 23//18 17//18
v -41.499828 -1.590434 16.637133
v 41.499828 -1.590434 16.637133
v -41.499828 -1.590427 -21.245588
v 41.499828 -1.590427 -21.245588
v -41.499828 -2.601584 16.637133
v 41.499828 -2.601584 16.637133
v -41.499828 -2.601577 -21.245588
v 41.499828 -2.601577 -21.245588
vn 0.000000 1.000000 0.000000
vn 0.000000 -1.000000 -0.000000
vn 0.000000 0.000000 -1.000000
vn 1.000000 0.000000 0.000000
vn 0.000000 0.000000 1.000000
vn -1.000000 0.000000 0.000000
s off
f 26//19 28//19 27//19
f 31//20 32//20 30//20
f 28//21 32//21 31//21
f 30//22 32//22 28//22
f 25//23 29//23 30//23
f 31//24 29//24 25//24
f 25//19 26//19 27//19
f 29//20 31//20 30//20
f 27//21 28//21 31//21
f 26//22 30//22 28//22
f 26//23 25//23 30//23
f 27//24 31//24 25//24
v -11.372283 -3.735525 -19.051437
v -16.161156 -3.735550 12.886862
v -11.372279 8.979860 -19.051426
v -16.161154 8.979834 12.886873
v -12.483122 -3.735524 -19.217997
v -17.271996 -3.735550 12.720301
v -12.483118 8.979860 -19.217987
v -17.271992 8.979835 12.720312
vn 0.988900 -0.000000 0.148300
vn -0.988900 0.000000 -0.148300
vn -0.000000 1.000000 0.000000
vn -0.148300 -0.000000 0.988900
vn -0.000000 -1.000000 -0.000000
vn 0.148300 0.000000 -0.988900
s off
f 34//25 35//25 36//25
f 33//25 35//25 34//25
f 38//26 40//26 39//26
f 37//26 38//26 39//26
f 36//27 35//27 39//27
f 36//28 40//28 38//28
f 33//29 34//29 38//29
f 35//30 33//30 37//30
f 40//27 36//27 39//27
f 34//28 36//28 38//28
f 37//29 33//29 38//29
f 39//30 35//30 37//30
v -16.177395 -2.883918 12.399856
v 16.117935 -2.883918 12.399856
v -16.177395 9.831467 12.399869
v 16.117935 9.831467 12.399869
v -16.177395 -2.883919 13.510279
v 16.117935 -2.883919 13.510279
v -16.177395 9.831466 13.510292
v 16.117935 9.831466 13.510292
vn 0.000000 0.000000 -1.000000
vn 0.000000 -0.000000 1.000000
vn 0.000000 1.000000 0.000000
vn 1.000000 -0.000000 0.000000
vn 0.000000 -1.000000 -0.000000
vn -1.000000 0.000000 0.000000
s off
f 42//31 43//31 44//31
f 41//31 43//31 42//31
f 46//32 48//32 47//32
f 45//32 46//32 47//32
f 43//33 47//33 48//33
f 44//34 48//34 46//34
f 42//35 46//35 45//35
f 41//36 45//36 47//36
f 44//33 43//33 48//33
f 42//34 44//34 46//34
f 41//35 42//35 45//35
f 43//36 41//36 47//36
