# Blender v2.71 (sub 0) OBJ File: 'test_scene.blend'
# www.blender.org
v -10.325932 18.140793 -31.173384
v 17.984970 18.140793 -10.365744
v -33.878517 18.140728 0.872293
v -5.567617 18.140728 21.679934
v -10.325933 19.606846 -31.173380
v 17.984966 19.606846 -10.365740
v -33.878521 19.606781 0.872299
v -5.567620 19.606781 21.679939
vn 0.000000 -1.000000 -0.000000
vn -0.000000 1.000000 0.000000
vn -0.592200 -0.000000 0.805800
vn 0.805800 0.000000 0.592200
vn 0.592200 0.000000 -0.805800
vn -0.805800 0.000000 -0.592200
s off
f 2//1 4//1 3//1
f 1//1 2//1 3//1
f 6//2 7//2 8//2
f 5//2 7//2 6//2
f 8//3 7//3 3//3
f 2//4 6//4 8//4
f 1//5 5//5 6//5
f 7//6 5//6 1//6
f 4//3 8//3 3//3
f 4//4 2//4 8//4
f 2//5 1//5 6//5
f 3//6 7//6 1//6
v 1.211089 3.373577 -20.745951
v 10.262745 3.373577 -14.093264
v -6.319222 3.373549 -10.500200
v 2.732433 3.373549 -3.847513
v 1.211088 4.737858 -20.745949
v 10.262743 4.737858 -14.093262
v -6.319223 4.737830 -10.500198
v 2.732432 4.737830 -3.847510
vn 0.000000 -1.000000 -0.000000
vn -0.000000 1.000000 0.000000
vn -0.592200 -0.000000 0.805800
vn 0.805800 0.000000 0.592200
vn 0.592200 0.000000 -0.805800
vn -0.805800 0.000000 -0.592200
s off
f 10//7 12//7 11//7
f 9//7 10//7 11//7
f 14//8 15//8 16//8
f 13//8 15//8 14//8
f 16//9 15//9 11//9
f 14//10 16//10 12//10
f 9//11 13//11 14//11
f 11//12 15//12 13//12
f 12//9 16//9 11//9
f 10//10 14//10 12//10
f 10//11 9//11 14//11
f 9//12 11//12 13//12
v -41.499828 28.029404 16.637133
v 41.499828 28.029404 16.637133
v -41.499828 28.029411 -21.245588
v 41.499828 28.029411 -21.245588
v -41.499828 27.018253 16.637133
v 41.499828 27.018253 16.637133
v -41.499828 27.018261 -21.245588
v 41.499828 27.018261 -21.245588
vn 0.000000 1.000000 0.000000
vn 0.000000 -1.000000 -0.000000
vn 0.000000 0.000000 -1.000000
vn 1.000000 0.000000 0.000000
vn 0.000000 0.000000 1.000000
vn -1.000000 0.000000 0.000000
s off
f 18//13 20//13 19//13
f 23//14 24//14 22//14
f 20//15 24//15 23//15
f 22//16 24//16 20//16
f 17//17 21//17 22//17
f 23//18 21//18 17//18
f 17//13 18//13 19//13
f 21//14 23//14 22//14
f 19//15 20//15 23//15
f 18//16 22//16 20//16
f 18//17 17//17 22//17
f 19//18 23//18 17//18
v -6.294489 -9.010313 -10.794075
v 2.757166 -9.010313 -4.141388
v -6.294497 3.705071 -10.794065
v 2.757159 3.705071 -4.141377
v -5.486534 -9.010312 -11.893380
v 3.565121 -9.010312 -5.240693
v -5.486542 3.705073 -11.893370
v 3.565113 3.705072 -5.240682
vt -0.006921 0.996028
vt 0.000563 0.991604
vt 0.000563 0.991693
vt 0.999536 -0.001962
vt 0.999536 0.992583
vt 0.000177 0.992583
vt 0.000177 -0.001962
vn 0.592200 0.000000 -0.805800
vn -0.000000 1.000000 0.000000
vn 0.805800 0.000000 0.592200
vn 0.000000 -1.000000 -0.000000
vn -0.805800 0.000000 -0.592200
vn -0.592200 -0.000000 0.805800
s off
f 31/1/19 32/1/19 30/1/19
f 28/2/20 32/2/20 31/2/20
f 30/1/21 32/1/21 28/1/21
f 25/3/22 29/3/22 30/3/22
f 31/1/23 29/1/23 25/1/23
f 26/4/24 28/5/24 27/6/24
f 29/1/19 31/1/19 30/1/19
f 27/3/20 28/2/20 31/2/20
f 26/1/21 30/1/21 28/1/21
f 26/3/22 25/3/22 30/3/22
f 27/1/23 31/1/23 25/1/23
f 25/7/24 26/4/24 27/6/24
v -19.986134 -5.206648 5.209473
v -8.752670 -5.206648 5.209473
v -19.986134 30.871164 5.209491
v -8.752670 30.871164 5.209491
v -19.986134 -5.206646 3.845192
v -8.752670 -5.206646 3.845192
v -19.986134 30.871168 3.845210
v -8.752670 30.871168 3.845210
vn 0.000000 -0.000000 1.000000
vn 0.000000 0.000000 -1.000000
vn 0.000000 1.000000 0.000000
vn 1.000000 0.000000 0.000000
vn 0.000000 -1.000000 -0.000000
vn -1.000000 0.000000 0.000000
s off
f 34//25 36//25 35//25
f 33//25 34//25 35//25
f 38//26 39//26 40//26
f 37//26 39//26 38//26
f 40//27 39//27 35//27
f 38//28 40//28 36//28
f 37//29 38//29 34//29
f 39//30 37//30 33//30
f 36//27 40//27 35//27
f 34//28 38//28 36//28
f 33//29 37//29 34//29
f 35//30 39//30 33//30
v 16.000469 -7.622993 -17.406353
v 11.789391 -7.623019 14.613256
v 16.000490 28.454819 -17.406319
v 11.789412 28.454792 14.613290
v 17.446531 -7.622991 -17.216171
v 13.235453 -7.623017 14.803435
v 17.446554 28.454823 -17.216139
v 13.235475 28.454796 14.803470
vn -0.991500 0.000000 -0.130400
vn 0.991500 -0.000000 0.130400
vn -0.000000 1.000000 0.000000
vn -0.130400 -0.000000 0.991500
vn 0.000000 -1.000000 -0.000000
vn 0.130400 0.000000 -0.991500
s off
f 42//31 44//31 43//31
f 41//31 42//31 43//31
f 46//32 47//32 48//32
f 45//32 47//32 46//32
f 44//33 48//33 47//33
f 42//34 46//34 48//34
f 45//35 46//35 42//35
f 47//36 45//36 41//36
f 43//33 44//33 47//33
f 44//34 42//34 48//34
f 41//35 45//35 42//35
f 43//36 47//36 41//36
v -0.959820 -1.667477 0.807761
v 0.142541 -1.667476 -0.861011
v 3.958202 -1.667477 1.651561
v 2.855841 -1.667477 3.320333
v -0.959820 0.332523 0.807761
v 0.142541 0.332524 -0.861011
v 3.958202 0.332523 1.651561
v 2.855841 0.332523 3.320333
vt 0.005383 0.997078
vn -0.834400 0.000000 -0.551200
vn 0.550000 0.000000 -0.835200
vn 0.834400 0.000000 0.551200
vn -0.550000 -0.000000 0.835200
vn 0.000000 -1.000000 -0.000000
vn -0.000000 1.000000 0.000000
s off
f 54/8/37 50/8/37 49/8/37
f 55/8/38 51/8/38 50/8/38
f 56/8/39 52/8/39 51/8/39
f 53/8/40 49/8/40 52/8/40
f 49/8/41 50/8/41 51/8/41
f 55/8/42 54/8/42 53/8/42
f 53/8/37 54/8/37 49/8/37
f 54/8/38 55/8/38 50/8/38
f 55/8/39 56/8/39 51/8/39
f 56/8/40 53/8/40 52/8/40
f 52/8/41 49/8/41 51/8/41
f 56/8/42 55/8/42 53/8/42
v -16.177395 -5.206625 -11.727149
v 16.117935 -5.206625 -11.727149
v -16.177395 30.871187 -11.727132
v 16.117935 30.871187 -11.727132
v -16.177395 -5.206623 -13.091430
v 16.117935 -5.206623 -13.091430
v -16.177395 30.871191 -13.091413
v 16.117935 30.871191 -13.091413
vn 0.000000 -0.000000 1.000000
vn 0.000000 0.000000 -1.000000
vn 0.000000 1.000000 0.000000
vn 1.000000 0.000000 0.000000
vn 0.000000 -1.000000 -0.000000
vn -1.000000 -0.000000 0.000000
s off
f 58//43 60//43 59//43
f 57//43 58//43 59//43
f 62//44 63//44 64//44
f 61//44 63//44 62//44
f 64//45 63//45 59//45
f 62//46 64//46 60//46
f 61//47 62//47 58//47
f 63//48 61//48 57//48
f 60//45 64//45 59//45
f 58//46 62//46 60//46
f 57//47 61//47 58//47
f 59//48 63//48 57//48
v -41.499828 -1.590434 16.637133
v 41.499828 -1.590434 16.637133
v -41.499828 -1.590427 -21.245588
v 41.499828 -1.590427 -21.245588
v -41.499828 -2.601584 16.637133
v 41.499828 -2.601584 16.637133
v -41.499828 -2.601577 -21.245588
v 41.499828 -2.601577 -21.245588
vn 0.000000 1.000000 0.000000
vn 0.000000 -1.000000 -0.000000
vn 0.000000 0.000000 -1.000000
vn 1.000000 0.000000 0.000000
vn 0.000000 0.000000 1.000000
vn -1.000000 0.000000 0.000000
s off
f 66//49 68//49 67//49
f 71//50 72//50 70//50
f 68//51 72//51 71//51
f 70//52 72//52 68//52
f 65//53 69//53 70//53
f 71//54 69//54 65//54
f 65//49 66//49 67//49
f 69//50 71//50 70//50
f 67//51 68//51 71//51
f 66//52 70//52 68//52
f 66//53 65//53 70//53
f 67//54 71//54 65//54
v -11.372296 -7.622989 -19.051449
v -16.161169 -7.623015 12.886850
v -11.372266 28.454823 -19.051414
v -16.161140 28.454796 12.886885
v -12.483135 -7.622991 -19.218008
v -17.272009 -7.623017 12.720289
v -12.483105 28.454823 -19.217976
v -17.271978 28.454796 12.720324
vn 0.988900 -0.000000 0.148300
vn -0.988900 0.000000 -0.148300
vn -0.000000 1.000000 0.000000
vn -0.148300 -0.000000 0.988900
vn 0.000000 -1.000000 -0.000000
vn 0.148300 0.000000 -0.988900
s off
f 74//55 75//55 76//55
f 73//55 75//55 74//55
f 78//56 80//56 79//56
f 77//56 78//56 79//56
f 76//57 75//57 79//57
f 76//58 80//58 78//58
f 74//59 78//59 77//59
f 75//60 73//60 77//60
f 80//57 76//57 79//57
f 74//58 76//58 78//58
f 73//59 74//59 77//59
f 79//60 75//60 77//60
v -16.177395 -5.206671 12.399854
v 16.117935 -5.206671 12.399854
v -16.177395 30.871141 12.399871
v 16.117935 30.871141 12.399871
v -16.177395 -5.206675 13.510277
v 16.117935 -5.206675 13.510277
v -16.177395 30.871140 13.510294
v 16.117935 30.871140 13.510294
vn 0.000000 0.000000 -1.000000
vn 0.000000 -0.000000 1.000000
vn 0.000000 1.000000 0.000000
vn 1.000000 0.000000 0.000000
vn 0.000000 -1.000000 -0.000000
vn -1.000000 -0.000000 0.000000
s off
f 82//61 83//61 84//61
f 81//61 83//61 82//61
f 86//62 88//62 87//62
f 85//62 86//62 87//62
f 83//63 87//63 88//63
f 84//64 88//64 86//64
f 82//65 86//65 85//65
f 81//66 85//66 87//66
f 84//63 83//63 88//63
f 82//64 84//64 86//64
f 81//65 82//65 85//65
f 83//66 81//66 87//66
